<?xml version="1.0" standalone="no"?>
<!DOCTYPE svg PUBLIC "-//W3C//DTD SVG 20010904//EN"
 "http://www.w3.org/TR/2001/REC-SVG-20010904/DTD/svg10.dtd">
<svg version="1.0" xmlns="http://www.w3.org/2000/svg"
 width="2134.000000pt" height="2134.000000pt" viewBox="0 0 2134.000000 2134.000000"
 preserveAspectRatio="xMidYMid meet">
<metadata>
Created by potrace 1.11, written by Peter Selinger 2001-2013
</metadata>
<g transform="translate(0.000000,2134.000000) scale(0.100000,-0.100000)"
fill="#000000" stroke="none">
<path d="M5093 14886 c-147 -36 -287 -150 -350 -286 -7 -14 -35 -74 -62 -134
-28 -59 -51 -110 -51 -111 0 -2 -23 -52 -51 -112 -28 -59 -68 -146 -89 -193
-21 -47 -61 -134 -89 -193 -28 -60 -51 -110 -51 -112 0 -1 -20 -45 -44 -96
-47 -99 -211 -456 -253 -549 -14 -30 -43 -92 -64 -137 -21 -46 -39 -85 -39
-87 0 -3 -27 -62 -61 -133 -34 -70 -65 -137 -69 -148 -9 -22 -155 -340 -285
-620 -18 -38 -42 -92 -55 -120 -12 -27 -42 -92 -66 -142 -24 -51 -44 -95 -44
-97 0 -3 -23 -53 -51 -113 -28 -59 -73 -157 -101 -218 -28 -60 -63 -137 -78
-170 -24 -53 -148 -322 -232 -505 -17 -36 -40 -87 -53 -115 -12 -27 -39 -86
-60 -130 -20 -44 -50 -108 -66 -143 -41 -90 -59 -174 -54 -262 8 -161 68 -279
199 -388 24 -20 216 -122 230 -122 2 0 48 -21 103 -46 141 -66 192 -89 243
-112 25 -11 118 -54 208 -96 90 -42 165 -76 167 -76 2 0 65 -29 140 -65 76
-36 139 -65 140 -65 2 0 45 -20 97 -44 51 -24 116 -53 143 -66 28 -12 88 -40
135 -62 47 -22 130 -60 185 -85 266 -120 247 -105 260 -208 3 -27 10 -72 15
-100 5 -27 12 -72 15 -99 3 -27 8 -52 10 -55 2 -3 6 -31 9 -61 3 -30 11 -81
17 -113 5 -32 12 -74 15 -95 2 -20 8 -62 14 -92 5 -30 12 -73 15 -95 6 -42 10
-65 25 -155 5 -30 12 -79 15 -109 3 -30 8 -57 10 -61 2 -3 6 -26 9 -51 10 -77
16 -113 21 -139 3 -14 8 -45 11 -70 3 -25 8 -54 10 -65 2 -10 6 -37 9 -60 6
-39 11 -68 20 -122 2 -16 9 -59 15 -98 18 -113 20 -128 31 -170 27 -103 124
-232 218 -290 70 -43 164 -74 239 -78 62 -4 101 -1 222 19 19 3 49 8 65 10 17
3 73 11 125 19 52 8 111 17 130 20 19 2 44 6 55 9 11 2 43 7 70 10 28 4 57 9
65 11 8 2 35 6 60 9 25 3 72 10 105 16 33 6 78 13 100 16 22 3 81 12 130 20
112 19 129 21 185 29 25 3 83 13 130 20 47 8 101 16 120 19 84 12 162 24 230
36 30 5 73 12 95 15 23 3 50 7 60 9 11 2 42 7 68 10 27 4 58 9 70 12 12 2 39
6 62 9 57 9 96 15 125 20 14 2 43 7 65 10 23 3 52 7 65 10 13 3 42 7 65 10 22
3 47 8 55 10 8 2 38 6 65 10 28 3 88 12 135 20 47 8 103 17 125 20 23 3 50 7
61 9 12 2 45 7 75 11 30 4 56 8 59 10 3 1 32 6 65 10 32 3 62 8 65 10 3 1 28
6 55 9 28 4 61 9 75 11 14 3 41 7 61 9 35 4 37 3 43 -32 20 -123 47 -234 86
-357 284 -893 1030 -1561 1955 -1750 44 -9 98 -19 120 -21 22 -3 46 -7 52 -9
25 -9 221 -19 353 -19 123 0 265 8 330 19 14 2 43 7 65 10 22 4 54 9 70 12
146 24 388 98 545 166 552 239 986 639 1269 1168 76 143 167 371 207 519 21
78 55 247 70 340 26 170 25 534 -1 723 -4 26 -1 37 7 38 7 0 22 2 33 4 11 2
38 6 60 10 22 3 49 7 60 9 11 2 42 7 68 10 27 4 57 9 67 11 19 4 28 5 220 35
74 12 149 23 165 25 17 3 46 7 65 10 94 15 359 57 390 61 19 3 46 7 60 9 14 3
41 7 60 10 19 3 46 7 60 10 14 2 45 7 70 10 25 3 70 10 100 15 30 5 73 12 95
15 22 3 51 8 65 10 14 3 43 7 65 10 22 3 63 10 90 15 28 5 68 11 90 14 22 3
51 8 65 10 14 2 48 8 75 12 28 4 57 9 65 10 8 2 34 6 58 9 24 3 64 10 90 15
26 4 74 12 107 15 33 4 62 9 65 10 3 2 29 6 59 10 52 6 64 8 121 20 14 2 45 7
70 10 25 3 70 10 100 15 30 5 73 12 95 15 41 6 46 7 155 24 36 6 83 13 105 16
22 3 51 8 63 11 13 3 43 7 65 10 23 3 67 9 97 14 30 6 73 12 95 15 63 10 263
41 315 50 14 2 45 7 70 10 25 3 72 10 105 16 33 7 69 13 80 15 82 12 107 19
163 44 144 67 243 182 286 330 29 104 27 147 -19 435 -3 22 -15 99 -26 170
-11 72 -22 141 -25 155 -2 14 -7 45 -10 70 -3 25 -8 54 -10 65 -2 11 -7 40
-10 65 -3 25 -8 54 -10 65 -6 33 -12 71 -39 245 -14 91 -27 176 -29 190 -4 23
-7 43 -22 138 -12 83 -25 168 -29 192 -2 14 -13 84 -25 155 -11 72 -22 144
-25 160 -2 17 -7 48 -10 70 -4 22 -9 54 -12 70 -5 33 -7 45 -18 120 -4 28 -9
59 -11 70 -5 28 -16 96 -19 125 -3 24 -11 75 -21 130 -6 35 -31 197 -39 245
-3 22 -12 81 -20 130 -14 94 -21 140 -31 203 -3 20 -14 89 -24 152 -10 63 -21
135 -25 160 -3 25 -10 70 -15 100 -5 30 -12 73 -15 95 -4 22 -8 51 -10 65 -2
14 -9 57 -15 95 -6 39 -13 84 -16 100 -3 17 -7 44 -8 60 -2 17 -9 50 -16 75
-59 219 -251 373 -475 384 -41 2 -96 -1 -122 -6 -27 -5 -66 -11 -88 -14 -22
-2 -52 -7 -67 -9 -66 -11 -91 -15 -246 -39 -89 -14 -175 -28 -190 -30 -15 -2
-47 -8 -72 -11 -25 -4 -52 -9 -60 -10 -8 -2 -37 -6 -65 -9 -27 -4 -61 -8 -75
-11 -14 -3 -41 -7 -60 -10 -19 -3 -46 -7 -60 -10 -37 -7 -79 -13 -135 -21 -27
-3 -53 -8 -56 -10 -3 -2 -33 -6 -65 -9 -32 -4 -66 -8 -74 -10 -12 -3 -298 -48
-445 -70 -16 -3 -84 -13 -150 -24 -66 -10 -142 -22 -168 -26 -27 -3 -58 -8
-70 -11 -12 -2 -39 -6 -62 -9 -22 -3 -65 -10 -95 -15 -69 -12 -104 -17 -155
-25 -23 -3 -50 -7 -60 -9 -20 -3 -103 -16 -140 -21 -11 -2 -33 -6 -50 -9 -16
-2 -48 -7 -70 -11 -23 -3 -50 -7 -60 -9 -11 -2 -40 -7 -65 -10 -25 -3 -56 -8
-70 -11 -14 -3 -43 -8 -65 -10 -22 -3 -65 -10 -95 -15 -30 -5 -73 -12 -95 -15
-22 -2 -51 -7 -65 -9 -37 -6 -166 -27 -192 -31 -13 -2 -43 -6 -68 -10 -25 -3
-67 -10 -95 -15 -27 -5 -68 -12 -90 -15 -135 -19 -242 -36 -255 -40 -8 -2 -37
-6 -65 -10 -52 -6 -155 -22 -191 -29 -12 -2 -45 -8 -75 -11 -51 -7 -66 -9
-121 -19 -13 -2 -43 -7 -68 -10 -25 -4 -83 -13 -130 -21 -47 -8 -101 -17 -120
-19 -19 -3 -48 -7 -65 -10 -16 -2 -50 -8 -75 -11 -25 -4 -54 -9 -65 -11 -11
-2 -65 -11 -120 -19 -120 -18 -338 -52 -380 -59 -16 -3 -48 -7 -70 -11 -23 -3
-50 -7 -61 -9 -12 -2 -45 -7 -75 -11 -30 -4 -56 -8 -59 -10 -3 -2 -27 -6 -55
-9 -57 -8 -108 -16 -137 -21 -11 -3 -46 -7 -77 -11 -31 -3 -59 -8 -62 -10 -4
-2 -28 -6 -55 -9 -27 -3 -56 -8 -64 -10 -8 -2 -37 -7 -65 -11 -27 -3 -59 -8
-70 -10 -10 -2 -37 -6 -60 -9 -22 -3 -78 -12 -125 -20 -47 -8 -105 -17 -130
-20 -44 -6 -96 -14 -215 -34 -33 -6 -82 -13 -110 -16 -27 -4 -57 -8 -65 -10
-8 -2 -33 -7 -55 -10 -23 -3 -52 -7 -65 -10 -13 -3 -42 -7 -65 -10 -78 -11
-228 -35 -258 -41 -12 -2 -39 -6 -62 -9 -45 -7 -216 -34 -257 -41 -16 -2 -28
-2 -28 1 0 7 23 59 87 194 72 154 86 204 87 311 0 138 -39 246 -128 346 -56
63 -121 106 -246 163 -52 24 -126 58 -165 76 -38 18 -92 43 -120 55 -27 13
-97 45 -154 71 -57 27 -105 49 -107 49 -1 0 -55 25 -119 55 -65 30 -118 55
-120 55 -1 0 -52 23 -111 51 -60 28 -131 61 -159 73 -27 13 -94 44 -148 70
-54 25 -100 46 -102 46 -2 0 -45 20 -97 44 -51 24 -115 53 -143 66 -54 24
-139 63 -250 115 -38 18 -92 42 -120 55 -27 13 -97 45 -154 72 -57 26 -105 48
-106 48 -2 0 -47 21 -102 46 -54 25 -147 68 -208 96 -60 27 -137 63 -170 78
-133 63 -721 333 -740 340 -11 4 -63 28 -115 53 -324 153 -544 250 -600 263
-68 16 -168 16 -237 0z"/>
</g>
</svg>
